<svg xmlns="http://www.w3.org/2000/svg" viewBox="0 0 578.9 242.55"><defs><style>.a{fill:#1a1a1a;}.b{fill:#006ebe;}</style></defs><title>default-logo</title><path class="a" d="M108,251.5q0,6.9-2.51,10.64a8,8,0,0,1-7,3.74,6.74,6.74,0,0,1-5.27-2.33,8.72,8.72,0,0,1-2.07-6,11.61,11.61,0,0,1,4.54-9.16q4.54-3.83,12.32-4.83v8Zm8.76,25.31a19.44,19.44,0,0,0,9.25,2c0.79,0,1.4,0,1.81,0s0.79-.06,1.13-0.11L129,265.38a4.09,4.09,0,0,1-2.38-1.48,4.38,4.38,0,0,1-.83-2.73V231.72q0-11.67-6.53-17.59T100,208.2a40.72,40.72,0,0,0-13.62,2.19A38.15,38.15,0,0,0,74.76,217l8.38,10.72a38.53,38.53,0,0,1,8.35-5.28A18.58,18.58,0,0,1,99,220.78a10.41,10.41,0,0,1,6.56,1.93,6.09,6.09,0,0,1,2.48,5v5.35q-17,2.32-25.51,9.26T74,260.77q0,8.54,4.74,13.72t12.6,5.18a22.25,22.25,0,0,0,9.74-2.2,36.7,36.7,0,0,0,9.49-7A15.41,15.41,0,0,0,116.75,276.81Z" transform="translate(-74 -37.4)"/><path class="a" d="M144.66,279.81V222.18H129.43V208.45h46.18v13.72H160.08v57.64H144.66Z" transform="translate(-74 -37.4)"/><path class="a" d="M211.63,279.56h-7.73c-15.36,0-22.4-7.17-22.4-21.43V208.3h17.2s0.14,43.41.14,48.41c0,4.49,2.29,7.09,6.51,7.09h6.2Z" transform="translate(-74 -37.4)"/><path class="a" d="M249.25,251.62q0,6.88-2.5,10.6a8,8,0,0,1-7,3.72,6.7,6.7,0,0,1-5.24-2.31,8.67,8.67,0,0,1-2.06-6A11.57,11.57,0,0,1,237,248.5q4.53-3.81,12.27-4.81v7.94Zm8.72,25.2a19.33,19.33,0,0,0,9.21,2q1.18,0,1.81,0t1.12-.11l0.06-13.27A4.07,4.07,0,0,1,267.8,264a4.37,4.37,0,0,1-.83-2.72V231.92q0-11.62-6.5-17.52t-19.19-5.9a40.6,40.6,0,0,0-13.56,2.18,38,38,0,0,0-11.57,6.6L224.49,228a38.41,38.41,0,0,1,8.32-5.26,18.5,18.5,0,0,1,7.44-1.67,10.34,10.34,0,0,1,6.53,1.92,6.06,6.06,0,0,1,2.47,5v5.33q-17,2.31-25.4,9.22t-8.44,18.34q0,8.5,4.72,13.66t12.54,5.16a22.21,22.21,0,0,0,9.69-2.18,36.6,36.6,0,0,0,9.45-6.93A15.3,15.3,0,0,0,258,276.82Z" transform="translate(-74 -37.4)"/><path class="a" d="M277.62,279.59V209.85h18.15v13.3q5.23-7.63,10.5-11.21a19.54,19.54,0,0,1,11.2-3.59q7.08,0,10.91,4.39t3.83,12.41v54.44H314.06V236.14q0-6.84-1.27-8.85t-4.72-2a11.78,11.78,0,0,0-5.77,1.76,31.56,31.56,0,0,0-6.53,5.21v47.35H277.62Z" transform="translate(-74 -37.4)"/><path class="a" d="M415.42,238.33q0-10.4,1.36-15.17a18.89,18.89,0,0,1,4.65-8.16,19.89,19.89,0,0,1,7.32-4.68,27.27,27.27,0,0,1,9.62-1.61q9.76,0,16.22,5.46a16.92,16.92,0,0,1,6.46,13.41v4.08H446.2q-0.18-5.22-2-7.58t-5.76-2.36q-4.37,0-6.06,2.38t-1.69,11.63V252.8q0,8.83,1.67,11.41t6.08,2.58q4.14,0,5.94-2.52t1.8-8.36v-1h14.9v4.53a19,19,0,0,1-6.25,14.79q-6.26,5.67-16.43,5.67a27.32,27.32,0,0,1-9.62-1.6,19.91,19.91,0,0,1-7.32-4.68,18.88,18.88,0,0,1-4.65-8.16q-1.36-4.77-1.36-15.16v-12Z" transform="translate(-74 -37.4)"/><path class="a" d="M494,279.63V209.85h18.16v13.31q5.23-7.63,10.5-11.22a19.54,19.54,0,0,1,11.2-3.59q7.09,0,10.92,4.4t3.83,12.41v54.48H530.42V236.15q0-6.84-1.28-8.85t-4.72-2a11.79,11.79,0,0,0-5.77,1.76,31.62,31.62,0,0,0-6.54,5.21v47.38H494Z" transform="translate(-74 -37.4)"/><path class="a" d="M571.79,231.2q0-5.09,2.19-8a7.84,7.84,0,0,1,12.16-.06q2.06,2.86,2.07,8.51v5.84H571.79V231.2Zm29.57,30a53.76,53.76,0,0,1-8.8,3.39,28.18,28.18,0,0,1-7.44,1.11q-6.32,0-9.83-3.23t-3.5-9.06v-5.85h31.38V232.88q0-11.36-6.33-17.88t-17.32-6.52q-11.8,0-18,7t-6.24,20.3v16q0,13.46,6.86,20.6t19.83,7.14a47.22,47.22,0,0,0,10.4-1.21,69,69,0,0,0,11.21-3.63Z" transform="translate(-74 -37.4)"/><path class="a" d="M352.28,279.82V222.18H337V208.46h46.18v13.72H367.7v57.64H352.28Z" transform="translate(-74 -37.4)"/><polygon class="a" points="315.64 170.9 333.35 170.9 333.35 242.16 315.69 242.16 315.64 170.9"/><path class="a" d="M622,279.61V222H606.72V208.25H652.9V222H637.38v57.64H622Z" transform="translate(-74 -37.4)"/><path class="b" d="M370.36,108.74S396.8,101.55,395.1,90c-2-13.4-35.31-14.31-57.6-14.31L344,90s22.48-1.48,27.87,2C376.49,94.91,375.51,99.51,370.36,108.74Z" transform="translate(-74 -37.4)"/><path class="b" d="M403.84,95.22s41.5-37.65-89.37-33.92c-97.52,2.77-121.69,35-121.69,35s24.8-42.84,125.59-45.45C458,47.23,407,94.44,403.84,95.22Z" transform="translate(-74 -37.4)"/><path class="b" d="M392,112.21S469.28,101,465.83,71c-3.64-31.73-95.2-32.89-95.2-32.89s131.45-8.24,133.12,33.17C505.43,113.1,392,112.21,392,112.21Z" transform="translate(-74 -37.4)"/><path class="b" d="M337.14,93.59s-29,6.61-25.47,19c3.86,13.52,36.92,18.39,58.3,18.17l-8.84-16.88s-19.4-.67-26.16-4.31C328.59,106.11,327.86,101.87,337.14,93.59Z" transform="translate(-74 -37.4)"/><path class="b" d="M301.59,105.66S262.43,151,413.89,150.42c139.65-.5,120-53.45,120-53.45s33.8,64.11-123.86,65.12C311.16,162.72,275.91,134.15,301.59,105.66Z" transform="translate(-74 -37.4)"/><path class="b" d="M317.13,89.21S237,105,240.42,141.76C243.72,176.82,357.33,182,357.33,182s-151.67,4.33-155.44-37.2C197.53,96.75,317.13,89.21,317.13,89.21Z" transform="translate(-74 -37.4)"/><circle class="b" cx="402.6" cy="232.04" r="10.51"/></svg>